<svg xmlns="http://www.w3.org/2000/svg" viewBox="0 0 430 293.482">
  <g id="Group_1" data-name="Group 1" transform="translate(-100 -962)">
    <path id="Path_140" data-name="Path 140" d="M1248.986,416.1H965.652a8.554,8.554,0,0,0-8.552,8.552h0a8.554,8.554,0,0,0,8.552,8.552h8.036a8.582,8.582,0,0,0-2.017.25,7.8,7.8,0,0,0-2.486,1.126c-.109.078-.219.141-.313.219-.2.156-.406.313-.594.485-.094.094-.187.172-.281.266a7.852,7.852,0,0,0-1.563,2.2,8.094,8.094,0,0,0-.75,2.673,7.147,7.147,0,0,0-.047.829v170.6a8.05,8.05,0,0,0,8.052,8.051h-8.036a8.554,8.554,0,0,0-8.552,8.552h0a8.554,8.554,0,0,0,8.552,8.552h283.334a8.554,8.554,0,0,0,8.552-8.552h0a8.554,8.554,0,0,0-8.552-8.552h-8.036a8.035,8.035,0,0,0,5.691-2.361c.094-.094.188-.188.266-.281a7.939,7.939,0,0,0,1.986-4.112c0-.047.016-.078.016-.125a7.428,7.428,0,0,0,.094-1.172v-170.6a8.02,8.02,0,0,0-2.095-5.409c-.094-.094-.172-.188-.266-.281a9.037,9.037,0,0,0-1.188-.985,3.712,3.712,0,0,0-.328-.2,8.058,8.058,0,0,0-4.174-1.173h8.036a8.554,8.554,0,0,0,8.552-8.552h0A8.554,8.554,0,0,0,1248.986,416.1Z" transform="translate(-727.538 591.756)" fill="#826f5e"/>
    <path id="Path_141" data-name="Path 141" d="M391.579,596.6a18.112,18.112,0,0,0-18.01,16.244l-7.8,7.8.547.547-41.336,41.336-32.3-32.3a13.373,13.373,0,0,0-12.069-3.674,33.091,33.091,0,0,0-5.753-.5h-3.017v-9.255a2.235,2.235,0,0,0-2.236-2.236H268.7v-3.08a27.7,27.7,0,0,0,24.092-27.438V554.15a6.645,6.645,0,0,0,3.971-5.832,11.51,11.51,0,0,0-7.285-20.418H274.965a11.473,11.473,0,0,0-9.24,4.659h-12.82a10.809,10.809,0,0,0-10.037,6.816,6.036,6.036,0,0,0-.75-.047,7.052,7.052,0,0,0-7.051,7.051v8.9a6.994,6.994,0,0,0,1.626,4.5,6.627,6.627,0,0,0,.75,13.211V584.01a27.6,27.6,0,0,0,1.423,8.786v21.731h-4.815v10.881a12.93,12.93,0,0,0-6.285.61h-.094v.031a12.9,12.9,0,0,0-7.723,7.786L204.44,677.142l-2.548,7.129a18.3,18.3,0,0,0,11.053,23.388l7.129,2.548,7.6,2.72v31.549a7.44,7.44,0,0,0,7.442,7.442h0v4.409h-3.439a3.985,3.985,0,0,0-3.268,1.7h81.2a3.985,3.985,0,0,0-3.268-1.7h-.625V751.95h1.642V725.764a18.251,18.251,0,0,0,0-10.037V681.488l7.254,7.254a14.692,14.692,0,0,0,20.778,0l7.9-7.9L384.637,639.5l.2.2,6.879-6.879a18.112,18.112,0,0,0-.141-36.224Z" transform="translate(-88.668 497.435)" fill="#826f5e"/>
    <path id="Path_142" data-name="Path 142" d="M1191.014,450.4H923.751a8.05,8.05,0,0,0-8.051,8.052v170.6a8.05,8.05,0,0,0,8.051,8.052h267.263a8.05,8.05,0,0,0,8.052-8.052v-170.6A8.05,8.05,0,0,0,1191.014,450.4Z" transform="translate(-692.61 563.109)" fill="#f4f4f4"/>
    <path id="Path_143" data-name="Path 143" d="M1424.96,450.4H1326.5l-93.9,186.7h132.842a8.05,8.05,0,0,0,8.052-8.052l59.519-170.6A8.03,8.03,0,0,0,1424.96,450.4Z" transform="translate(-959.966 563.109)" fill="#f2f0f0"/>
    <path id="Path_144" data-name="Path 144" d="M1959.842,450.4H1920.9L1827,637.1h132.842a8.05,8.05,0,0,0,8.052-8.052v-170.6A8.05,8.05,0,0,0,1959.842,450.4Z" transform="translate(-1461.438 563.109)" fill="#e8e8e8"/>
    <path id="Path_145" data-name="Path 145" d="M1152.986,1644.6H869.652a8.554,8.554,0,0,0-8.552,8.552h0a8.554,8.554,0,0,0,8.552,8.552h283.334a8.554,8.554,0,0,0,8.552-8.552h0A8.554,8.554,0,0,0,1152.986,1644.6Z" transform="translate(-646.546 -444.681)" fill="#413f40"/>
    <circle id="Ellipse_42" data-name="Ellipse 42" cx="43.556" cy="43.556" r="43.556" transform="translate(262.756 1034.666)" fill="#f3666f"/>
    <circle id="Ellipse_43" data-name="Ellipse 43" cx="22.497" cy="22.497" r="22.497" transform="translate(283.815 1055.725)" fill="#97ccce"/>
    <path id="Path_146" data-name="Path 146" d="M1445.3,923.349a49.753,49.753,0,0,0,49.716-47.949H1445.3Z" transform="translate(-1138.988 204.62)" fill="#fcd44e"/>
    <path id="Path_147" data-name="Path 147" d="M1175.592,1236.4h-5.269a2.416,2.416,0,0,0-2.423,2.423v5.269a2.415,2.415,0,0,0,2.423,2.423h5.269a2.415,2.415,0,0,0,2.423-2.423v-5.269A2.415,2.415,0,0,0,1175.592,1236.4Z" transform="translate(-904.956 -100.126)" fill="#f3666f"/>
    <path id="Path_148" data-name="Path 148" d="M1175.592,1337.4h-5.269a2.415,2.415,0,0,0-2.423,2.423v5.269a2.415,2.415,0,0,0,2.423,2.423h5.269a2.415,2.415,0,0,0,2.423-2.423v-5.269A2.425,2.425,0,0,0,1175.592,1337.4Z" transform="translate(-904.956 -185.336)" fill="#97ccce"/>
    <path id="Path_149" data-name="Path 149" d="M1175.592,1438.5h-5.269a2.416,2.416,0,0,0-2.423,2.423v5.269a2.416,2.416,0,0,0,2.423,2.423h5.269a2.415,2.415,0,0,0,2.423-2.423v-5.269A2.415,2.415,0,0,0,1175.592,1438.5Z" transform="translate(-904.956 -270.63)" fill="#fcd44e"/>
    <path id="Path_150" data-name="Path 150" d="M1348.646,1255.9H1276.4a2,2,0,0,0,0,4h72.245a2,2,0,1,0,0-4Z" transform="translate(-994.806 -116.577)" fill="#4e4d4b"/>
    <path id="Path_151" data-name="Path 151" d="M1329.682,1357H1276.4a2,2,0,0,0,0,4h53.281a2,2,0,1,0,0-4Z" transform="translate(-994.806 -201.871)" fill="#4e4d4b"/>
    <path id="Path_152" data-name="Path 152" d="M1341.689,1458H1276.4a2,2,0,0,0,0,4h65.288a2,2,0,1,0,0-4Z" transform="translate(-994.806 -287.081)" fill="#4e4d4b"/>
    <path id="Path_153" data-name="Path 153" d="M2083.4,1044.987h-78.076V966.911a2.111,2.111,0,1,0-4.221,0V1047.1a2.112,2.112,0,0,0,2.111,2.111H2083.4a2.111,2.111,0,1,0,0-4.221Z" transform="translate(-1608.319 129.047)" fill="#4e4d4b"/>
    <path id="Path_154" data-name="Path 154" d="M2096.279,1262.7h0a5.882,5.882,0,0,0-5.879,5.878v16.916a5.882,5.882,0,0,0,5.879,5.878h0a5.882,5.882,0,0,0,5.878-5.878v-16.916A5.882,5.882,0,0,0,2096.279,1262.7Z" transform="translate(-1683.658 -122.28)" fill="#97ccce"/>
    <path id="Path_155" data-name="Path 155" d="M2238.178,1212.8h0a5.882,5.882,0,0,0-5.878,5.878V1243.4a5.881,5.881,0,0,0,5.878,5.878h0a5.881,5.881,0,0,0,5.878-5.878v-24.717A5.891,5.891,0,0,0,2238.178,1212.8Z" transform="translate(-1803.373 -80.181)" fill="#fcd44e"/>
    <path id="Path_156" data-name="Path 156" d="M2379.978,1174.5h0a5.881,5.881,0,0,0-5.878,5.878v30.705a5.881,5.881,0,0,0,5.878,5.878h0a5.882,5.882,0,0,0,5.879-5.878v-30.705A5.872,5.872,0,0,0,2379.978,1174.5Z" transform="translate(-1923.005 -47.869)" fill="#f3666f"/>
    <path id="Path_157" data-name="Path 157" d="M2024.285,801.7H2003.1a2,2,0,1,0,0,4h21.184a2,2,0,1,0,0-4Z" transform="translate(-1608.092 266.795)" fill="#4e4d4b"/>
    <path id="Path_158" data-name="Path 158" d="M1152.986,341H869.652a8.554,8.554,0,0,0-8.552,8.552h0a8.554,8.554,0,0,0,8.552,8.552h283.334a8.554,8.554,0,0,0,8.552-8.552h0A8.554,8.554,0,0,0,1152.986,341Z" transform="translate(-646.546 655.676)" fill="#413f40"/>
    <path id="Path_159" data-name="Path 159" d="M2024.285,851.8H2003.1a2,2,0,1,0,0,4h21.184a2,2,0,1,0,0-4Z" transform="translate(-1608.092 224.513)" fill="#4e4d4b"/>
    <path id="Path_160" data-name="Path 160" d="M2249.186,801.7H2228a2,2,0,1,0,0,4h21.184a2,2,0,0,0,0-4Z" transform="translate(-1797.903 266.795)" fill="#4e4d4b"/>
    <path id="Path_161" data-name="Path 161" d="M2249.186,851.8H2228a2,2,0,1,0,0,4h21.184a2,2,0,0,0,0-4Z" transform="translate(-1797.903 224.513)" fill="#4e4d4b"/>
    <path id="Path_162" data-name="Path 162" d="M2075.346,610.5H2003.1a2,2,0,1,0,0,4h72.245a2,2,0,1,0,0-4Z" transform="translate(-1608.319 428.161)" fill="#4e4d4b"/>
    <path id="Path_163" data-name="Path 163" d="M2047.946,685.2H2003.2a2,2,0,1,0,0,4h44.744a2,2,0,0,0,0-4Z" transform="translate(-1608.213 365.117)" fill="#4e4d4b"/>
    <path id="Path_164" data-name="Path 164" d="M915.7,458.452v43.04L941.387,450.4H923.751A8.04,8.04,0,0,0,915.7,458.452Z" transform="translate(-692.039 563.26)" fill="#fffdfd"/>
    <path id="Path_165" data-name="Path 165" d="M1030.776,341H869.652a8.554,8.554,0,0,0-8.552,8.552h0a8.554,8.554,0,0,0,8.552,8.552h161.139a8.554,8.554,0,0,0,8.552-8.552h0A8.577,8.577,0,0,0,1030.776,341Z" transform="translate(-646.1 655.676)" fill="#4e4d4b"/>
    <path id="Path_166" data-name="Path 166" d="M974.931,1644.6H869.652a8.554,8.554,0,0,0-8.552,8.552h0a8.554,8.554,0,0,0,8.552,8.552H974.931a8.554,8.554,0,0,0,8.552-8.552h0A8.554,8.554,0,0,0,974.931,1644.6Z" transform="translate(-646.031 -444.681)" fill="#4e4d4b"/>
    <path id="Path_167" data-name="Path 167" d="M622.7,1123.78l-32.3-32.315a13.13,13.13,0,0,0-18.167-.547,12.928,12.928,0,0,0-.344,18.6l32.519,32.519,7.9,7.9a14.692,14.692,0,0,0,20.778,0l7.9-7.9,41.664-41.665L664.369,1082.1Z" transform="translate(-398.723 30.059)" fill="#413f40"/>
    <path id="Path_168" data-name="Path 168" d="M485.437,1115.3H464.8v118.458a7.44,7.44,0,0,0,7.442,7.442h45.667v-93.413A32.477,32.477,0,0,0,485.437,1115.3Z" transform="translate(-311.381 1.868)" fill="#4e4d4b"/>
    <path id="Path_169" data-name="Path 169" d="M424.735,1115.3H407.6v118.458a7.44,7.44,0,0,0,7.442,7.442h45.667v-89.927A35.97,35.97,0,0,0,424.735,1115.3Z" transform="translate(-263.124 1.868)" fill="#fff"/>
    <path id="Path_170" data-name="Path 170" d="M403.311,1041.8H373.7v12.632h31.846v-10.4A2.225,2.225,0,0,0,403.311,1041.8Z" transform="translate(-234.524 64.151)" fill="#fff"/>
    <rect id="Rectangle_31" data-name="Rectangle 31" width="29.845" height="35.52" transform="translate(138.051 1083.087)" fill="#d6643e"/>
    <path id="Path_171" data-name="Path 171" d="M365.3,1041.8H335.7v12.632h31.846v-10.4A2.239,2.239,0,0,0,365.3,1041.8Z" transform="translate(-202.465 64.151)" fill="#fff"/>
    <path id="Path_172" data-name="Path 172" d="M166.591,1127.723a12.924,12.924,0,0,0-7.817-16.525h0a12.924,12.924,0,0,0-16.525,7.817l-15.509,43.306-2.548,7.129a18.3,18.3,0,0,0,11.053,23.388l7.129,2.548,55.469,19.855,8.708-24.342-55.469-19.871Z" transform="translate(-23.116 5.97)" fill="#4e4d4b"/>
    <path id="Path_173" data-name="Path 173" d="M312.05,1115.3H294.9v118.458a7.44,7.44,0,0,0,7.442,7.442h45.667v-89.927A35.957,35.957,0,0,0,312.05,1115.3Z" transform="translate(-168.043 1.868)" fill="#4e4d4b"/>
    <path id="Path_174" data-name="Path 174" d="M310.724,1267.417,317.509,1221,302,1264.306Z" transform="translate(-174.033 -87.135)" fill="#413f40"/>
    <path id="Path_175" data-name="Path 175" d="M294.9,1683.592l47.871,4.643L294.9,1671.1Z" transform="translate(-168.043 -467.038)" fill="#413f40"/>
    <rect id="Rectangle_32" data-name="Rectangle 32" width="70.587" height="12.413" transform="translate(134.298 1243.069)" fill="#413f40"/>
    <rect id="Rectangle_33" data-name="Rectangle 33" width="26.937" height="11.616" transform="matrix(0.34, -0.94, 0.94, 0.34, 164.927, 1218.214)" fill="#fff"/>
    <circle id="Ellipse_44" data-name="Ellipse 44" cx="18.104" cy="18.104" r="18.104" transform="translate(170.89 1193.744)" fill="#f8985c"/>
    <circle id="Ellipse_45" data-name="Ellipse 45" cx="6.832" cy="6.832" r="6.832" transform="translate(188.244 1198.919)" fill="#f9b087"/>
    <rect id="Rectangle_34" data-name="Rectangle 34" width="11.616" height="26.937" transform="translate(264.619 1112.009) rotate(-45)" fill="#e8e8e8"/>
    <circle id="Ellipse_46" data-name="Ellipse 46" cx="18.104" cy="18.104" r="18.104" transform="translate(272.299 1088.001)" fill="#f8985c"/>
    <circle id="Ellipse_47" data-name="Ellipse 47" cx="6.832" cy="6.832" r="6.832" transform="translate(289.668 1093.175)" fill="#f9b087"/>
    <path id="Path_176" data-name="Path 176" d="M381,934.9s7.129,11.976,16.556,14.618c7.41,2.079,11.006,1.219,11.006,1.219l-.234-8.567Z" transform="translate(-240.682 154.369)" fill="#bf4a2b"/>
    <path id="Path_177" data-name="Path 177" d="M663.216,623.129h4.862a6.632,6.632,0,0,0,6.629-6.629H663.2v6.629Z" transform="translate(-478.763 423.094)" fill="#413f40"/>
    <path id="Path_178" data-name="Path 178" d="M357.4,652.458a27.673,27.673,0,0,0,27.672,27.672h0a27.673,27.673,0,0,0,27.672-27.672V616.5H357.4Z" transform="translate(-220.772 423.094)" fill="#f8985c"/>
    <circle id="Ellipse_48" data-name="Ellipse 48" cx="6.629" cy="6.629" r="6.629" transform="translate(129.999 1051.273)" fill="#d6643e"/>
    <path id="Path_179" data-name="Path 179" d="M620.968,732.3a4.264,4.264,0,0,0-4.268,4.268,3.853,3.853,0,0,0,.141,1.048,4.255,4.255,0,0,1,8.255,0,4.578,4.578,0,0,0,.141-1.048A4.274,4.274,0,0,0,620.968,732.3Z" transform="translate(-439.533 325.398)" fill="#413f40"/>
    <path id="Path_180" data-name="Path 180" d="M461.068,732.3a4.264,4.264,0,0,0-4.268,4.268,3.85,3.85,0,0,0,.141,1.048,4.255,4.255,0,0,1,8.255,0,4.575,4.575,0,0,0,.141-1.048A4.264,4.264,0,0,0,461.068,732.3Z" transform="translate(-304.632 325.398)" fill="#413f40"/>
    <circle id="Ellipse_49" data-name="Ellipse 49" cx="2.814" cy="2.814" r="2.814" transform="translate(133.814 1055.087)" fill="#f8985c"/>
    <path id="Path_181" data-name="Path 181" d="M364.639,652.458V616.5H357.4v35.958a27.673,27.673,0,0,0,27.672,27.672h0a27.7,27.7,0,0,0,3.627-.25A27.654,27.654,0,0,1,364.639,652.458Z" transform="translate(-220.772 423.094)" fill="#d6643e"/>
    <path id="Path_182" data-name="Path 182" d="M549.815,487.5H535.307a11.507,11.507,0,1,0,0,23.013h14.508a11.507,11.507,0,0,0,0-23.013Z" transform="translate(-361.157 531.926)" fill="#413f40"/>
    <path id="Path_183" data-name="Path 183" d="M349.251,560.6a7.053,7.053,0,0,0-7.051,7.051v8.9a7.051,7.051,0,0,0,14.1,0v-8.9A7.053,7.053,0,0,0,349.251,560.6Z" transform="translate(-207.948 470.255)" fill="#413f40"/>
    <path id="Path_184" data-name="Path 184" d="M387.3,528.072v10.381H407a9.988,9.988,0,0,0,9.99-9.99V517.3H398.072A10.752,10.752,0,0,0,387.3,528.072Z" transform="translate(-245.997 506.785)" fill="#413f40"/>
    <path id="Path_185" data-name="Path 185" d="M480.386,888.686A13.091,13.091,0,0,0,493.471,875.6H467.3A13.091,13.091,0,0,0,480.386,888.686Z" transform="translate(-313.49 204.502)" fill="#be4b59"/>
    <path id="Path_186" data-name="Path 186" d="M540.8,897.381c0,.281.016.563.031.829a12.859,12.859,0,0,0,1.548.094,13.072,13.072,0,0,0,12.82-10.49,10.373,10.373,0,0,0-14.4,9.568Z" transform="translate(-375.499 194.884)" fill="#f65866"/>
    <path id="Path_187" data-name="Path 187" d="M480.8,876.96a1.635,1.635,0,0,0,1.626,1.626h17.916a1.635,1.635,0,0,0,1.626-1.626V875.6H480.8Z" transform="translate(-324.88 204.502)" fill="#fef4ff"/>
    <circle id="Ellipse_50" data-name="Ellipse 50" cx="2.455" cy="2.455" r="2.455" transform="translate(151.466 1208.014) rotate(-45)" fill="#413f40"/>
    <circle id="Ellipse_51" data-name="Ellipse 51" cx="2.455" cy="2.455" r="2.455" transform="translate(158.594 1208.018)" fill="#413f40"/>
    <path id="Path_188" data-name="Path 188" d="M2338.221,1895h-8.52a2,2,0,0,0,0,4h8.52a2,2,0,0,0,0-4Z" transform="translate(-1883.859 -655.934)" fill="#f4f4f4"/>
    <path id="Path_189" data-name="Path 189" d="M2436.122,1895h-8.52a2,2,0,1,0,0,4h8.52a2,2,0,1,0,0-4Z" transform="translate(-1966.453 -655.934)" fill="#f4f4f4"/>
    <path id="Path_190" data-name="Path 190" d="M2534.022,1895H2525.5a2,2,0,1,0,0,4h8.521a2,2,0,0,0,0-4Z" transform="translate(-2049.047 -655.934)" fill="#f4f4f4"/>
    <path id="Path_191" data-name="Path 191" d="M2631.922,1895H2623.4a2,2,0,1,0,0,4h8.521a2,2,0,0,0,0-4Z" transform="translate(-2131.642 -655.934)" fill="#f4f4f4"/>
    <circle id="Ellipse_52" data-name="Ellipse 52" cx="3.142" cy="3.142" r="3.142" transform="translate(482.457 976.727)" fill="#ab9887"/>
    <circle id="Ellipse_53" data-name="Ellipse 53" cx="2.22" cy="2.22" r="2.22" transform="translate(497.685 980.792)" fill="#ab9887"/>
    <circle id="Ellipse_54" data-name="Ellipse 54" cx="3.705" cy="3.705" r="3.705" transform="translate(493.151 967.112)" fill="#ab9887"/>
    <path id="Path_192" data-name="Path 192" d="M198.4,472.112a1.312,1.312,0,0,0-1.86,0l-2.142,2.142-2.126-2.126a1.316,1.316,0,1,0-1.86,1.86l2.126,2.126-2.126,2.126a1.316,1.316,0,0,0,1.86,1.86l2.126-2.126,2.126,2.126a1.316,1.316,0,0,0,1.86-1.86l-2.111-2.126,2.126-2.126A1.331,1.331,0,0,0,198.4,472.112Z" transform="translate(-79.564 545.28)" fill="#c4b5a9"/>
    <path id="Path_193" data-name="Path 193" d="M682.932,300.963a1.906,1.906,0,0,0-2.7,0l-3.08,3.08-3.08-3.08a1.912,1.912,0,1,0-2.7,2.7l3.08,3.08-3.08,3.08a1.913,1.913,0,0,0,2.7,2.7l3.08-3.08,3.08,3.08a1.913,1.913,0,0,0,2.7-2.7l-3.08-3.08,3.08-3.08A1.906,1.906,0,0,0,682.932,300.963Z" transform="translate(-485.344 689.929)" fill="#c4b5a9"/>
    <path id="Path_194" data-name="Path 194" d="M342.666,147.2a6.066,6.066,0,1,0,6.066,6.066A6.072,6.072,0,0,0,342.666,147.2Zm0,9.13a3.064,3.064,0,1,1,3.064-3.064A3.069,3.069,0,0,1,342.666,156.33Z" transform="translate(-203.224 819.177)" fill="#c9bfb8"/>
    <path id="Path_195" data-name="Path 195" d="M1095.729,119.2a6.129,6.129,0,1,0,6.129,6.129A6.139,6.139,0,0,0,1095.729,119.2Zm0,9.224a3.1,3.1,0,1,1,3.1-3.1A3.1,3.1,0,0,1,1095.729,128.424Z" transform="translate(-838.797 842.8)" fill="#c9bfb8"/>
    <circle id="Ellipse_55" data-name="Ellipse 55" cx="3.142" cy="3.142" r="3.142" transform="translate(102.311 1093.639)" fill="#c9bfb8"/>
    <circle id="Ellipse_56" data-name="Ellipse 56" cx="2.22" cy="2.22" r="2.22" transform="translate(117.539 1097.704)" fill="#c9bfb8"/>
    <circle id="Ellipse_57" data-name="Ellipse 57" cx="3.705" cy="3.705" r="3.705" transform="translate(113.005 1084.024)" fill="#c9bfb8"/>
  </g>
</svg>
