<svg xmlns="http://www.w3.org/2000/svg" viewBox="0 0 429.904 309.548">
  <g id="Group_39" data-name="Group 39" transform="translate(-883.5 -1456)">
    <path id="Path_196" data-name="Path 196" d="M734.528,209a96.52,96.52,0,0,0-63.064,23.324,97.034,97.034,0,0,0-84.411,14.284,97.009,97.009,0,0,0-99.2,24.517,97.855,97.855,0,0,0-17.141,4.168,96.557,96.557,0,0,1,9.06-8.609,96.907,96.907,0,0,0-57.39,155.185c1.135,1.644,2.309,3.229,3.522,4.794a191.924,191.924,0,0,0,3.835,66.038h370.89a191.467,191.467,0,0,0-6.751-110.259A96.873,96.873,0,0,0,734.528,209Z" transform="translate(482 1247)" fill="#cbe9e7"/>
    <g id="Group_1" data-name="Group 1" transform="translate(898.821 1728.175)">
      <path id="Path_197" data-name="Path 197" d="M855.66,1600H491.325a11.532,11.532,0,0,0-11.525,11.525h0a11.532,11.532,0,0,0,11.525,11.525H855.66a11.532,11.532,0,0,0,11.525-11.525h0A11.532,11.532,0,0,0,855.66,1600Z" transform="translate(-479.8 -1600)" fill="#a9a8ad"/>
      <path id="Path_198" data-name="Path 198" d="M1041.126,1663H800.16c-7.474,0-13.56,5.616-13.56,12.523s6.066,12.523,13.56,12.523h240.966c7.474,0,13.56-5.615,13.56-12.523S1048.62,1663,1041.126,1663Z" transform="translate(-726.569 -1650.673)" fill="#a9a8ad"/>
      <path id="Path_199" data-name="Path 199" d="M856.7,1600a19.365,19.365,0,0,0,19.371,19.371h204.669A19.365,19.365,0,0,0,1100.112,1600H856.7Z" transform="translate(-782.952 -1600)" fill="#8e8c91"/>
    </g>
    <g id="Group_12" data-name="Group 12" transform="translate(909.661 1513.935)">
      <path id="Path_200" data-name="Path 200" d="M598.088,703.377a11,11,0,0,0-1.781-2.387,12.006,12.006,0,0,0-9.881-3.189,13.222,13.222,0,0,0-3.248-5.44c-6.477-6.477-18.589-4.872-27.061,3.6a27.355,27.355,0,0,0-5.146,7.083c-3.639-.47-7.944,1.076-11.271,4.422a14.565,14.565,0,0,0-4.5,9.412h73.18c2-4.207,1.741-8.786-1.057-11.564C605.054,703.025,601.59,702.418,598.088,703.377Z" transform="translate(-535.2 -652.52)" fill="#edf4f3"/>
      <g id="Group_2" data-name="Group 2" transform="translate(18.804 52.031)">
        <rect id="Rectangle_37" data-name="Rectangle 37" width="61.518" height="120.004" transform="translate(5.694 7.103)" fill="#c4ddda"/>
        <rect id="Rectangle_38" data-name="Rectangle 38" width="72.887" height="7.103" fill="#c4ddda"/>
        <rect id="Rectangle_39" data-name="Rectangle 39" width="50.463" height="9.94" transform="translate(11.212 12.816)" fill="#b8d2cf"/>
        <rect id="Rectangle_40" data-name="Rectangle 40" width="50.463" height="9.94" transform="translate(11.212 28.47)" fill="#b8d2cf"/>
        <rect id="Rectangle_41" data-name="Rectangle 41" width="50.463" height="9.94" transform="translate(11.212 44.143)" fill="#b8d2cf"/>
        <rect id="Rectangle_42" data-name="Rectangle 42" width="50.463" height="9.94" transform="translate(11.212 59.796)" fill="#b8d2cf"/>
        <rect id="Rectangle_43" data-name="Rectangle 43" width="50.463" height="9.94" transform="translate(11.212 75.45)" fill="#b8d2cf"/>
        <rect id="Rectangle_44" data-name="Rectangle 44" width="50.463" height="9.94" transform="translate(11.212 91.123)" fill="#b8d2cf"/>
        <rect id="Rectangle_45" data-name="Rectangle 45" width="50.463" height="9.94" transform="translate(11.212 106.776)" fill="#b8d2cf"/>
      </g>
      <path id="Path_201" data-name="Path 201" d="M1265.468,520.077a10.992,10.992,0,0,0-1.781-2.387,12.005,12.005,0,0,0-9.881-3.189,13.221,13.221,0,0,0-3.248-5.44c-6.477-6.477-18.589-4.872-27.061,3.6a27.355,27.355,0,0,0-5.146,7.083c-3.64-.47-7.944,1.076-11.271,4.422a14.667,14.667,0,0,0-4.481,9.431h73.18c2-4.207,1.741-8.786-1.057-11.564C1272.415,519.725,1268.951,519.118,1265.468,520.077Z" transform="translate(-1072.011 -505.086)" fill="#edf4f3"/>
      <g id="Group_11" data-name="Group 11" transform="translate(79.246 23.053)">
        <rect id="Rectangle_46" data-name="Rectangle 46" width="79.402" height="137.731" transform="translate(5.596 15.38)" fill="#c4ddda"/>
        <rect id="Rectangle_47" data-name="Rectangle 47" width="61.616" height="15.38" transform="translate(14.499)" fill="#c4ddda"/>
        <rect id="Rectangle_48" data-name="Rectangle 48" width="90.614" height="5.166" transform="translate(0 10.214)" fill="#c4ddda"/>
        <g id="Group_4" data-name="Group 4" transform="translate(12.112 21.347)">
          <g id="Group_3" data-name="Group 3">
            <rect id="Rectangle_49" data-name="Rectangle 49" width="11.407" height="23.735" fill="#b8d2cf"/>
            <rect id="Rectangle_50" data-name="Rectangle 50" width="11.407" height="23.735" transform="translate(18.334)" fill="#b8d2cf"/>
            <rect id="Rectangle_51" data-name="Rectangle 51" width="11.407" height="23.735" transform="translate(36.668)" fill="#b8d2cf"/>
            <rect id="Rectangle_52" data-name="Rectangle 52" width="11.407" height="23.735" transform="translate(54.983)" fill="#b8d2cf"/>
          </g>
        </g>
        <g id="Group_6" data-name="Group 6" transform="translate(12.112 54.239)">
          <g id="Group_5" data-name="Group 5">
            <rect id="Rectangle_53" data-name="Rectangle 53" width="11.407" height="23.735" fill="#b8d2cf"/>
            <rect id="Rectangle_54" data-name="Rectangle 54" width="11.407" height="23.735" transform="translate(18.334)" fill="#b8d2cf"/>
            <rect id="Rectangle_55" data-name="Rectangle 55" width="11.407" height="23.735" transform="translate(36.668)" fill="#b8d2cf"/>
            <rect id="Rectangle_56" data-name="Rectangle 56" width="11.407" height="23.735" transform="translate(54.983)" fill="#b8d2cf"/>
          </g>
        </g>
        <g id="Group_8" data-name="Group 8" transform="translate(12.112 87.151)">
          <g id="Group_7" data-name="Group 7">
            <rect id="Rectangle_57" data-name="Rectangle 57" width="11.407" height="23.735" fill="#b8d2cf"/>
            <rect id="Rectangle_58" data-name="Rectangle 58" width="11.407" height="23.735" transform="translate(18.334)" fill="#b8d2cf"/>
            <rect id="Rectangle_59" data-name="Rectangle 59" width="11.407" height="23.735" transform="translate(36.668)" fill="#b8d2cf"/>
            <rect id="Rectangle_60" data-name="Rectangle 60" width="11.407" height="23.735" transform="translate(54.983)" fill="#b8d2cf"/>
          </g>
        </g>
        <g id="Group_10" data-name="Group 10" transform="translate(12.112 120.043)">
          <g id="Group_9" data-name="Group 9">
            <rect id="Rectangle_61" data-name="Rectangle 61" width="11.407" height="23.735" fill="#b8d2cf"/>
            <rect id="Rectangle_62" data-name="Rectangle 62" width="11.407" height="23.735" transform="translate(18.334)" fill="#b8d2cf"/>
            <rect id="Rectangle_63" data-name="Rectangle 63" width="11.407" height="23.735" transform="translate(36.668)" fill="#b8d2cf"/>
            <rect id="Rectangle_64" data-name="Rectangle 64" width="11.407" height="23.735" transform="translate(54.983)" fill="#b8d2cf"/>
          </g>
        </g>
      </g>
    </g>
    <g id="Group_13" data-name="Group 13" transform="translate(1127.46 1482.885)">
      <rect id="Rectangle_65" data-name="Rectangle 65" width="16.612" height="112.529" transform="translate(83.942 132.898)" fill="#663332"/>
      <path id="Path_202" data-name="Path 202" d="M1966.373,671.25a22.13,22.13,0,0,1-44.26,0V661.036H1905.5V671.25a38.742,38.742,0,1,0,77.485,0V622.9h-16.612Z" transform="translate(-1855.174 -568.798)" fill="#663332"/>
      <circle id="Ellipse_58" data-name="Ellipse 58" cx="46.726" cy="46.726" r="46.726" transform="translate(72.789 0)" fill="#558426"/>
      <circle id="Ellipse_59" data-name="Ellipse 59" cx="52.674" cy="52.674" r="52.674" transform="translate(0 12.914)" fill="#73ab3c"/>
      <circle id="Ellipse_60" data-name="Ellipse 60" cx="24.185" cy="24.185" r="24.185" transform="translate(119.514 45.102)" fill="#558426"/>
      <path id="Path_203" data-name="Path 203" d="M2327.99,433.6a7.691,7.691,0,0,0-7.69,7.69h15.38A7.691,7.691,0,0,0,2327.99,433.6Z" transform="translate(-2188.811 -416.538)" fill="#669934"/>
      <path id="Path_204" data-name="Path 204" d="M2271.39,545.9a7.691,7.691,0,0,0-7.69,7.69h15.38A7.691,7.691,0,0,0,2271.39,545.9Z" transform="translate(-2143.285 -506.864)" fill="#669934"/>
      <path id="Path_205" data-name="Path 205" d="M2214.89,658.3a7.691,7.691,0,0,0-7.69,7.69h15.379A7.691,7.691,0,0,0,2214.89,658.3Z" transform="translate(-2097.841 -597.271)" fill="#669934"/>
      <path id="Path_206" data-name="Path 206" d="M1786.89,545.9a7.691,7.691,0,0,0-7.69,7.69h15.38A7.691,7.691,0,0,0,1786.89,545.9Z" transform="translate(-1753.587 -506.864)" fill="#669934"/>
      <path id="Path_207" data-name="Path 207" d="M1843.49,658.3a7.691,7.691,0,0,0-7.69,7.69h15.38A7.691,7.691,0,0,0,1843.49,658.3Z" transform="translate(-1799.112 -597.271)" fill="#669934"/>
      <path id="Path_208" data-name="Path 208" d="M1900.09,770.6a7.691,7.691,0,0,0-7.69,7.69h15.38A7.691,7.691,0,0,0,1900.09,770.6Z" transform="translate(-1844.637 -687.597)" fill="#669934"/>
      <path id="Path_209" data-name="Path 209" d="M1733.952,412.4a52.636,52.636,0,0,0-44.651,24.733,52.673,52.673,0,0,1,72.593,72.593,52.674,52.674,0,0,0-27.942-97.326Z" transform="translate(-1681.278 -399.486)" fill="#669934"/>
    </g>
    <g id="Group_16" data-name="Group 16" transform="translate(915.081 1663.311)">
      <g id="Group_14" data-name="Group 14" transform="translate(0 0)">
        <path id="Path_210" data-name="Path 210" d="M669.735,1268.5a46.576,46.576,0,0,0-30.055,10.938,46.736,46.736,0,0,0-73.121,53.926H712.821a46.736,46.736,0,0,0-43.086-64.864Z" transform="translate(-562.9 -1268.5)" fill="#558426"/>
        <path id="Path_211" data-name="Path 211" d="M704.69,1355.7a7.691,7.691,0,0,0-7.69,7.69h15.38A7.691,7.691,0,0,0,704.69,1355.7Z" transform="translate(-670.761 -1338.638)" fill="#669934"/>
        <path id="Path_212" data-name="Path 212" d="M923.69,1460a7.691,7.691,0,0,0-7.69,7.69h15.38A7.691,7.691,0,0,0,923.69,1460Z" transform="translate(-846.909 -1422.529)" fill="#669934"/>
        <path id="Path_213" data-name="Path 213" d="M1149.69,1414.6a7.691,7.691,0,0,0-7.69,7.69h15.38A7.691,7.691,0,0,0,1149.69,1414.6Z" transform="translate(-1028.688 -1386.013)" fill="#669934"/>
      </g>
      <g id="Group_15" data-name="Group 15" transform="translate(244.195 26.396)">
        <path id="Path_214" data-name="Path 214" d="M1874.258,1403.4a27.64,27.64,0,0,0-17.825,6.5,27.71,27.71,0,0,0-43.36,31.972h86.72a27.714,27.714,0,0,0-25.535-38.469Z" transform="translate(-1810.9 -1403.4)" fill="#558426"/>
        <path id="Path_215" data-name="Path 215" d="M1895.059,1455.1a4.551,4.551,0,0,0-4.559,4.559h9.118A4.564,4.564,0,0,0,1895.059,1455.1Z" transform="translate(-1874.925 -1444.984)" fill="#669934"/>
        <path id="Path_216" data-name="Path 216" d="M2024.959,1517a4.551,4.551,0,0,0-4.559,4.559h9.118A4.564,4.564,0,0,0,2024.959,1517Z" transform="translate(-1979.407 -1494.772)" fill="#669934"/>
        <path id="Path_217" data-name="Path 217" d="M2158.959,1490.1a4.551,4.551,0,0,0-4.559,4.559h9.118A4.564,4.564,0,0,0,2158.959,1490.1Z" transform="translate(-2087.188 -1473.135)" fill="#669934"/>
      </g>
    </g>
    <g id="Group_36" data-name="Group 36" transform="translate(976.325 1501.121)">
      <g id="Group_21" data-name="Group 21" transform="translate(126.581 0)">
        <rect id="Rectangle_66" data-name="Rectangle 66" width="44.926" height="18.941" transform="translate(0 111.088) rotate(-63.691)" fill="#fe935f"/>
        <rect id="Rectangle_67" data-name="Rectangle 67" width="19.606" height="113.018" transform="translate(62.827 122.997)" fill="#6c7f90"/>
        <rect id="Rectangle_68" data-name="Rectangle 68" width="6.985" height="113.018" transform="translate(75.447 122.997)" fill="#5f7082"/>
        <rect id="Rectangle_69" data-name="Rectangle 69" width="19.606" height="112.177" transform="translate(29.856 122.997)" fill="#6c7f90"/>
        <rect id="Rectangle_70" data-name="Rectangle 70" width="6.985" height="113.018" transform="translate(42.477 122.997)" fill="#5f7082"/>
        <path id="Path_218" data-name="Path 218" d="M1633.178,722.8a11.409,11.409,0,0,0-15.164,5.518l-4.813,10.331,20.682,9.646,4.813-10.331A11.432,11.432,0,0,0,1633.178,722.8Z" transform="translate(-1595.514 -666.521)" fill="#f3e9f2"/>
        <path id="Path_219" data-name="Path 219" d="M1682.681,721.8s-7.181,1.428-7.181,14.577v52.557a26.271,26.271,0,0,0,26.278,26.278h0a26.271,26.271,0,0,0,26.278-26.278V721.8h-45.376Z" transform="translate(-1645.624 -666.582)" fill="#fef7ff"/>
        <path id="Path_220" data-name="Path 220" d="M1853.7,1584.5h0a9.8,9.8,0,0,0-9.8,9.8v2.172h19.606V1594.3A9.82,9.82,0,0,0,1853.7,1584.5Z" transform="translate(-1781.073 -1360.479)" fill="#666"/>
        <path id="Path_221" data-name="Path 221" d="M1602.868,1574.8h0a11.365,11.365,0,0,0-11.368,11.368v2.524h22.737v-2.524A11.365,11.365,0,0,0,1602.868,1574.8Z" transform="translate(-1578.06 -1352.677)" fill="#666"/>
        <path id="Path_222" data-name="Path 222" d="M1891.112,748.411l.137-.039V721.8c-7.807,0-10.488,3.268-11.544,5.537a13.805,13.805,0,0,0-.47,10.625l4.637,12.758,7.357,38.86-.137-26.3V748.411Z" transform="translate(-1808.817 -666.582)" fill="#f3e9f2"/>
        <path id="Path_223" data-name="Path 223" d="M2046.1,1223.828l.254-1.409c-.039,0-.059-.02-.1-.02A12.754,12.754,0,0,1,2046.1,1223.828Z" transform="translate(-1943.709 -1069.231)" fill="#fd925e"/>
        <path id="Path_224" data-name="Path 224" d="M1775.9,597.416a9.094,9.094,0,0,0,9.1,9.1h0a9.094,9.094,0,0,0,9.1-9.1V566.5h-18.2Z" transform="translate(-1726.379 -541.67)" fill="#ffa374"/>
        <path id="Path_225" data-name="Path 225" d="M1775.9,686.112c12.445-4.461,13.755-9.412,13.755-9.412l-13.755,2.485Z" transform="translate(-1726.379 -630.307)" fill="#fd925e"/>
        <path id="Path_226" data-name="Path 226" d="M1703.3,526.115a16.209,16.209,0,0,0,16.2,16.2h0a16.209,16.209,0,0,0,16.2-16.2V503.3H1703.32v22.815Z" transform="translate(-1667.984 -490.836)" fill="#ffa374"/>
        <g id="Group_17" data-name="Group 17" transform="translate(41.225 34.144)">
          <path id="Path_227" data-name="Path 227" d="M1740.74,621.44a7.248,7.248,0,0,0,7.24-7.24H1733.5A7.248,7.248,0,0,0,1740.74,621.44Z" transform="translate(-1733.5 -614.18)" fill="#be4b59"/>
          <path id="Path_228" data-name="Path 228" d="M1736.431,619.2a5.678,5.678,0,0,0-2.231.45,7.261,7.261,0,0,0,7.1,5.811,6.148,6.148,0,0,0,.861-.059,3.623,3.623,0,0,0,.02-.45A5.737,5.737,0,0,0,1736.431,619.2Z" transform="translate(-1734.063 -618.202)" fill="#f65866"/>
          <path id="Path_229" data-name="Path 229" d="M1741.7,614.863a.91.91,0,0,0,.9.9h9.92a.91.91,0,0,0,.9-.9V614.1H1741.7v.763Z" transform="translate(-1740.095 -614.1)" fill="#fef4ff"/>
        </g>
        <path id="Path_230" data-name="Path 230" d="M1793.357,557.9a2.86,2.86,0,0,0-2.857,2.857,4.778,4.778,0,0,0,.039.528,2.845,2.845,0,0,1,5.6,0,2.4,2.4,0,0,0,.039-.528A2.791,2.791,0,0,0,1793.357,557.9Z" transform="translate(-1738.122 -534.752)" fill="#653332"/>
        <path id="Path_231" data-name="Path 231" d="M1715.957,557.9a2.86,2.86,0,0,0-2.857,2.857,4.808,4.808,0,0,0,.039.528,2.845,2.845,0,0,1,5.6,0,2.409,2.409,0,0,0,.039-.528A2.79,2.79,0,0,0,1715.957,557.9Z" transform="translate(-1675.867 -534.752)" fill="#653332"/>
        <path id="Path_232" data-name="Path 232" d="M1887.063,787.4l-17.845,6.359,8.649,24.224-17.278,5.89-2.289,20.858,31.307-10.723a13.074,13.074,0,0,0,8.081-16.769Z" transform="translate(-1792.656 -719.346)" fill="#ffa374"/>
        <g id="Group_19" data-name="Group 19" transform="translate(76.568 68.03)">
          <g id="Group_18" data-name="Group 18" transform="translate(0 0)">
            <rect id="Rectangle_71" data-name="Rectangle 71" width="18.941" height="10.351" transform="translate(0 6.362) rotate(-19.627)" fill="#fe935f"/>
          </g>
        </g>
        <rect id="Rectangle_72" data-name="Rectangle 72" width="21.406" height="8.942" transform="translate(28.076 227.054)" fill="#666"/>
        <path id="Path_233" data-name="Path 233" d="M1898.673,722.464a11.412,11.412,0,0,0-6.809,14.616l3.894,10.723L1917.183,740l-3.894-10.723A11.412,11.412,0,0,0,1898.673,722.464Z" transform="translate(-1819.097 -666.561)" fill="#fef7ff"/>
        <g id="Group_20" data-name="Group 20" transform="translate(30.267)">
          <path id="Path_234" data-name="Path 234" d="M1860.085,479.2h-2a2.28,2.28,0,0,0-2.289,2.289v10.605h6.574V481.489A2.292,2.292,0,0,0,1860.085,479.2Z" transform="translate(-1820.912 -471.452)" fill="#653332"/>
          <path id="Path_235" data-name="Path 235" d="M1843.285,454.1h-2a2.28,2.28,0,0,0-2.289,2.289v9.783a2.28,2.28,0,0,0,2.289,2.289h2a2.28,2.28,0,0,0,2.289-2.289v-9.783A2.292,2.292,0,0,0,1843.285,454.1Z" transform="translate(-1807.4 -451.263)" fill="#653332"/>
          <rect id="Rectangle_73" data-name="Rectangle 73" width="27.765" height="11.368" transform="translate(7.103 2.837)" fill="#653332"/>
          <circle id="Ellipse_61" data-name="Ellipse 61" cx="7.103" cy="7.103" r="7.103" fill="#653332"/>
        </g>
        <circle id="Ellipse_62" data-name="Ellipse 62" cx="4.97" cy="4.97" r="4.97" transform="translate(61.789 14.988)" fill="#ffa374"/>
        <circle id="Ellipse_63" data-name="Ellipse 63" cx="2.505" cy="2.505" r="2.505" transform="translate(64.255 17.454)" fill="#fd925e"/>
        <rect id="Rectangle_74" data-name="Rectangle 74" width="6.985" height="8.942" transform="translate(42.477 227.054)" fill="#565656"/>
      </g>
      <g id="Group_35" data-name="Group 35" transform="translate(0 78.561)">
        <g id="Group_22" data-name="Group 22" transform="translate(82.005)">
          <path id="Path_236" data-name="Path 236" d="M1295,843.233v53.026a2.138,2.138,0,0,0,2.133,2.133h43.4V841.1h-43.4A2.125,2.125,0,0,0,1295,843.233Z" transform="translate(-1295 -841.1)" fill="#ffce58"/>
          <path id="Path_237" data-name="Path 237" d="M1404.423,841.1H1365.7v57.272h38.723a2.138,2.138,0,0,0,2.133-2.133V843.233A2.125,2.125,0,0,0,1404.423,841.1Z" transform="translate(-1351.866 -841.1)" fill="#da9444"/>
          <circle id="Ellipse_64" data-name="Ellipse 64" cx="10.879" cy="10.879" r="10.879" transform="translate(23.382 17.767)" fill="#f9d480"/>
        </g>
        <rect id="Rectangle_75" data-name="Rectangle 75" width="44.221" height="5.85" transform="translate(88.207 119.71)" fill="#9e383f"/>
        <path id="Path_238" data-name="Path 238" d="M1246.917,1361.727a2.941,2.941,0,0,0-4.05.9l-21.347,33.6a2.206,2.206,0,0,1-2.016.724,3.007,3.007,0,0,1-2.524-1.448,2.929,2.929,0,1,0-5.342,2.407,8.8,8.8,0,0,0,7.455,4.892c.235.02.47.02.7.02a7.687,7.687,0,0,0,6.692-3.463l21.347-33.6A2.937,2.937,0,0,0,1246.917,1361.727Z" transform="translate(-1145.736 -1259.49)" fill="#ad4346"/>
        <path id="Path_239" data-name="Path 239" d="M921.2,1189.621a33.43,33.43,0,0,0,32.4,25.163h44.3V1168.9h-82Z" transform="translate(-908.073 -1104.76)" fill="#e3585a"/>
        <path id="Path_240" data-name="Path 240" d="M1150.783,1189.621a33.43,33.43,0,0,0,32.4,25.163h42.265a33.447,33.447,0,0,0,32.4-25.163l5.283-20.721H1145.5Z" transform="translate(-1092.748 -1104.76)" fill="#c25151"/>
        <g id="Group_23" data-name="Group 23" transform="translate(152.052 33.638)">
          <rect id="Rectangle_76" data-name="Rectangle 76" width="22.678" height="6.888" transform="matrix(0.964, -0.268, 0.268, 0.964, 0, 10.708)" fill="#c1140c"/>
          <path id="Path_241" data-name="Path 241" d="M1795.082,1015.534a3.421,3.421,0,0,0-4.246-2.387l-13.736,3.815,1.839,6.633,13.736-3.815a3.466,3.466,0,0,0,2.407-4.246Z" transform="translate(-1752.815 -1013.013)" fill="#240c0a"/>
          <path id="Path_242" data-name="Path 242" d="M1765.79,1025.35a1.267,1.267,0,0,0-2.426.665l2.348,8.433a1.267,1.267,0,0,0,2.426-.665Z" transform="translate(-1741.739 -1022.3)" fill="#c1140c"/>
        </g>
        <path id="Path_243" data-name="Path 243" d="M1047.932,1133.8H877.955a2.054,2.054,0,0,0-2.055,2.054v2.739a2.054,2.054,0,0,0,2.055,2.055h169.977a2.054,2.054,0,0,0,2.055-2.055v-2.739A2.042,2.042,0,0,0,1047.932,1133.8Z" transform="translate(-875.9 -1076.528)" fill="#ea686e"/>
        <g id="Group_24" data-name="Group 24" transform="translate(24.772 112.764)">
          <ellipse id="Ellipse_65" data-name="Ellipse 65" cx="19.039" cy="22.287" rx="19.039" ry="22.287" fill="#9b989f"/>
          <rect id="Rectangle_77" data-name="Rectangle 77" width="7.729" height="44.554" transform="translate(19.039)" fill="#9b989f"/>
          <ellipse id="Ellipse_66" data-name="Ellipse 66" cx="19.039" cy="22.287" rx="19.039" ry="22.287" transform="translate(7.709)" fill="#575354"/>
          <ellipse id="Ellipse_67" data-name="Ellipse 67" cx="8.042" cy="9.431" rx="8.042" ry="9.431" transform="translate(18.706 12.855)" fill="#eebe5a"/>
        </g>
        <path id="Path_244" data-name="Path 244" d="M1070.726,1401.7a1.927,1.927,0,0,1-1.839.92,1.95,1.95,0,0,1-1.683-1.174l-11.075-24.713a2.923,2.923,0,0,0-2.681-1.722h-24.517a2.978,2.978,0,0,0-2.681,1.722l-9.2,20.506a5.99,5.99,0,0,1-5.459,3.542h-39.76a2.935,2.935,0,1,0,0,5.87h39.76a11.827,11.827,0,0,0,10.8-7l8.414-18.765h20.721l10.312,22.971a7.836,7.836,0,0,0,6.614,4.618,5.663,5.663,0,0,0,.567.02,7.872,7.872,0,0,0,6.633-3.64l21.348-33.6-4.95-3.15Z" transform="translate(-950.703 -1264.983)" fill="#c25151"/>
        <path id="Path_245" data-name="Path 245" d="M1502.2,1189.621a33.43,33.43,0,0,1-32.4,25.163h16.495a33.447,33.447,0,0,0,32.4-25.163l5.283-20.721h-16.495Z" transform="translate(-1353.592 -1104.76)" fill="#ad4346"/>
        <g id="Group_29" data-name="Group 29" transform="translate(130.511 5.009)">
          <g id="Group_25" data-name="Group 25" transform="translate(17.454)">
            <rect id="Rectangle_78" data-name="Rectangle 78" width="15.967" height="21.641" transform="translate(1.467 2.231)" fill="#fe6257"/>
            <rect id="Rectangle_79" data-name="Rectangle 79" width="3.561" height="21.641" transform="translate(13.873 2.231)" fill="#b95148"/>
            <rect id="Rectangle_80" data-name="Rectangle 80" width="3.561" height="21.641" transform="translate(1.467 2.231)" fill="#fe857a"/>
            <path id="Path_246" data-name="Path 246" d="M1666.3,918.268v-.078a2.289,2.289,0,1,0-4.579,0v.1a2.29,2.29,0,0,0,.665,4.481,2.354,2.354,0,0,0,1.663-.7,2.292,2.292,0,1,0,2.25-3.8Z" transform="translate(-1654.621 -906.273)" fill="#ffcf58"/>
            <path id="Path_247" data-name="Path 247" d="M1649.886,866.7h-16.671a1.115,1.115,0,0,0-1.115,1.115,1.128,1.128,0,0,0,1.115,1.115h16.671a1.115,1.115,0,0,0,1.115-1.115A1.128,1.128,0,0,0,1649.886,866.7Z" transform="translate(-1632.1 -866.7)" fill="#d8dbe0"/>
            <path id="Path_248" data-name="Path 248" d="M1649.886,988.8h-16.671a1.115,1.115,0,0,0,0,2.231h16.671a1.115,1.115,0,1,0,0-2.231Z" transform="translate(-1632.1 -964.909)" fill="#cec8c8"/>
          </g>
          <g id="Group_26" data-name="Group 26" transform="translate(17.454 26.122)">
            <rect id="Rectangle_81" data-name="Rectangle 81" width="15.967" height="21.641" transform="translate(1.467 2.25)" fill="#ffce58"/>
            <rect id="Rectangle_82" data-name="Rectangle 82" width="3.561" height="21.641" transform="translate(13.873 2.25)" fill="#da9444"/>
            <rect id="Rectangle_83" data-name="Rectangle 83" width="3.561" height="21.641" transform="translate(1.467 2.25)" fill="#f9d480"/>
            <path id="Path_249" data-name="Path 249" d="M1649.886,1000.2h-16.671a1.115,1.115,0,0,0-1.115,1.115,1.128,1.128,0,0,0,1.115,1.115h16.671a1.115,1.115,0,0,0,1.115-1.115A1.128,1.128,0,0,0,1649.886,1000.2Z" transform="translate(-1632.1 -1000.2)" fill="#d8dbe0"/>
            <path id="Path_250" data-name="Path 250" d="M1649.886,1122.3h-16.671a1.115,1.115,0,0,0-1.115,1.115,1.128,1.128,0,0,0,1.115,1.115h16.671a1.115,1.115,0,0,0,1.115-1.115A1.128,1.128,0,0,0,1649.886,1122.3Z" transform="translate(-1632.1 -1098.409)" fill="#cec8c8"/>
            <circle id="Ellipse_68" data-name="Ellipse 68" cx="3.933" cy="3.933" r="3.933" transform="translate(5.518 9.138)" fill="#fe6257"/>
          </g>
          <g id="Group_27" data-name="Group 27" transform="translate(0 26.122)">
            <rect id="Rectangle_84" data-name="Rectangle 84" width="15.967" height="21.641" transform="translate(1.487 2.25)" fill="#6b995b"/>
            <rect id="Rectangle_85" data-name="Rectangle 85" width="3.561" height="21.641" transform="translate(13.892 2.25)" fill="#435c33"/>
            <rect id="Rectangle_86" data-name="Rectangle 86" width="3.561" height="21.641" transform="translate(1.487 2.25)" fill="#81b472"/>
            <path id="Path_251" data-name="Path 251" d="M1560.686,1000.2h-16.671a1.115,1.115,0,0,0-1.115,1.115,1.128,1.128,0,0,0,1.115,1.115h16.671a1.115,1.115,0,0,0,0-2.231Z" transform="translate(-1542.9 -1000.2)" fill="#d8dbe0"/>
            <path id="Path_252" data-name="Path 252" d="M1560.686,1122.3h-16.671a1.115,1.115,0,0,0-1.115,1.115,1.128,1.128,0,0,0,1.115,1.115h16.671a1.115,1.115,0,0,0,0-2.231Z" transform="translate(-1542.9 -1098.409)" fill="#cec8c8"/>
            <circle id="Ellipse_69" data-name="Ellipse 69" cx="3.346" cy="3.346" r="3.346" transform="translate(6.124 9.725)" fill="#ffcf58"/>
          </g>
          <g id="Group_28" data-name="Group 28">
            <rect id="Rectangle_87" data-name="Rectangle 87" width="15.967" height="21.641" transform="translate(1.487 2.231)" fill="#ffce58"/>
            <rect id="Rectangle_88" data-name="Rectangle 88" width="3.561" height="21.641" transform="translate(13.892 2.231)" fill="#da9444"/>
            <rect id="Rectangle_89" data-name="Rectangle 89" width="3.561" height="21.641" transform="translate(1.487 2.231)" fill="#f9d480"/>
            <path id="Path_253" data-name="Path 253" d="M1560.686,866.7h-16.671a1.115,1.115,0,0,0-1.115,1.115,1.127,1.127,0,0,0,1.115,1.115h16.671a1.115,1.115,0,0,0,0-2.231Z" transform="translate(-1542.9 -866.7)" fill="#d8dbe0"/>
            <path id="Path_254" data-name="Path 254" d="M1560.686,988.8h-16.671a1.115,1.115,0,0,0,0,2.231h16.671a1.115,1.115,0,0,0,1.115-1.115A1.091,1.091,0,0,0,1560.686,988.8Z" transform="translate(-1542.9 -964.909)" fill="#cec8c8"/>
            <path id="Path_255" data-name="Path 255" d="M1572.976,915.9,1571,919.344l1.976,3.424h3.972l1.976-3.424-1.976-3.444Z" transform="translate(-1565.502 -906.273)" fill="#d8dbe0"/>
          </g>
        </g>
        <g id="Group_30" data-name="Group 30" transform="translate(19.097 28.9)">
          <path id="Path_256" data-name="Path 256" d="M973.5,990.483v25.006a1.683,1.683,0,0,0,1.683,1.683h34.223V988.8H975.183A1.708,1.708,0,0,0,973.5,990.483Z" transform="translate(-973.5 -988.8)" fill="#fe6257"/>
          <path id="Path_257" data-name="Path 257" d="M1059.944,988.9H1029.4v28.372h30.544a1.683,1.683,0,0,0,1.683-1.683V990.563A1.679,1.679,0,0,0,1059.944,988.9Z" transform="translate(-1018.462 -988.88)" fill="#b95148"/>
          <circle id="Ellipse_70" data-name="Ellipse 70" cx="6.653" cy="6.653" r="6.653" transform="translate(20.389 7.533)" fill="#fe857a"/>
        </g>
        <g id="Group_31" data-name="Group 31" transform="translate(66.136 31.131)">
          <rect id="Rectangle_90" data-name="Rectangle 90" width="15.967" height="21.641" transform="translate(1.467 2.25)" fill="#6b995b"/>
          <rect id="Rectangle_91" data-name="Rectangle 91" width="3.561" height="21.641" transform="translate(13.873 2.25)" fill="#435c33"/>
          <rect id="Rectangle_92" data-name="Rectangle 92" width="3.561" height="21.641" transform="translate(1.467 2.25)" fill="#81b472"/>
          <path id="Path_258" data-name="Path 258" d="M1231.687,1000.2h-16.671a1.115,1.115,0,0,0-1.115,1.115,1.128,1.128,0,0,0,1.115,1.115h16.671a1.115,1.115,0,0,0,0-2.231Z" transform="translate(-1213.9 -1000.2)" fill="#d8dbe0"/>
          <path id="Path_259" data-name="Path 259" d="M1231.687,1122.3h-16.671a1.115,1.115,0,0,0-1.115,1.115,1.128,1.128,0,0,0,1.115,1.115h16.671a1.115,1.115,0,0,0,0-2.231Z" transform="translate(-1213.9 -1098.409)" fill="#cec8c8"/>
          <path id="Path_260" data-name="Path 260" d="M1243.9,1049.5l-2,3.424,2,3.444h3.972l1.976-3.444-1.976-3.424Z" transform="translate(-1236.421 -1039.854)" fill="#d8dbe0"/>
        </g>
        <g id="Group_32" data-name="Group 32" transform="translate(51.48 2.642)">
          <path id="Path_261" data-name="Path 261" d="M1149.781,876.5h-8.864L1139,878.574V896.38l1.918,2.074h17.728l1.9-2.074V878.574l-1.9-2.074Z" transform="translate(-1139 -872.215)" fill="#d8dbe0"/>
          <path id="Path_262" data-name="Path 262" d="M1169.727,854.6h-10.292a2.033,2.033,0,0,0-2.035,2.035v2.231h14.382v-2.231A2.076,2.076,0,0,0,1169.727,854.6Z" transform="translate(-1153.8 -854.6)" fill="#b95148"/>
          <path id="Path_263" data-name="Path 263" d="M1173.357,901.9h-8.081a1.971,1.971,0,0,0-1.976,1.976v8.081a1.971,1.971,0,0,0,1.976,1.976h8.081a1.971,1.971,0,0,0,1.976-1.976v-8.081A1.971,1.971,0,0,0,1173.357,901.9Z" transform="translate(-1158.545 -892.645)" fill="#da9444"/>
        </g>
        <g id="Group_33" data-name="Group 33" transform="translate(67.486 2.778)">
          <rect id="Rectangle_93" data-name="Rectangle 93" width="16.201" height="21.974" transform="translate(0 4.109)" fill="#fe6257"/>
          <rect id="Rectangle_94" data-name="Rectangle 94" width="3.6" height="21.974" transform="translate(12.601 4.109)" fill="#b95148"/>
          <rect id="Rectangle_95" data-name="Rectangle 95" width="3.6" height="21.974" transform="translate(0 4.109)" fill="#fe857a"/>
          <path id="Path_264" data-name="Path 264" d="M1237.1,855.3H1223.42a.92.92,0,1,0,0,1.839H1237.1a.92.92,0,0,0,0-1.839Z" transform="translate(-1222.167 -855.3)" fill="#fe6257"/>
          <path id="Path_265" data-name="Path 265" d="M1220.8,988.6l1.389,2.27h13.423L1237,988.6h-16.2Z" transform="translate(-1220.8 -962.517)" fill="#cec8c8"/>
          <path id="Path_266" data-name="Path 266" d="M1228.9,864.7h-6.711l-1.389,2.27H1237l-1.389-2.27Z" transform="translate(-1220.8 -862.861)" fill="#cec8c8"/>
          <ellipse id="Ellipse_71" data-name="Ellipse 71" cx="3.776" cy="5.303" rx="3.776" ry="5.303" transform="translate(4.324 9.803)" fill="#d8dbe0"/>
        </g>
        <g id="Group_34" data-name="Group 34" transform="translate(53.731 28.92)">
          <rect id="Rectangle_96" data-name="Rectangle 96" width="16.201" height="21.974" transform="translate(0 4.109)" fill="#ffce58"/>
          <rect id="Rectangle_97" data-name="Rectangle 97" width="3.6" height="21.974" transform="translate(12.601 4.109)" fill="#da9444"/>
          <rect id="Rectangle_98" data-name="Rectangle 98" width="3.6" height="21.974" transform="translate(0 4.109)" fill="#f9d480"/>
          <path id="Path_267" data-name="Path 267" d="M1166.9,988.9H1153.22a.92.92,0,1,0,0,1.839H1166.9a.92.92,0,0,0,0-1.839Z" transform="translate(-1151.948 -988.9)" fill="#ffce58"/>
          <path id="Path_268" data-name="Path 268" d="M1150.5,1122.2l1.389,2.27h13.442l1.37-2.27h-16.2Z" transform="translate(-1150.5 -1096.117)" fill="#cec8c8"/>
          <path id="Path_269" data-name="Path 269" d="M1158.6,998.3h-6.711l-1.389,2.27h16.2l-1.37-2.27Z" transform="translate(-1150.5 -996.461)" fill="#cec8c8"/>
          <path id="Path_270" data-name="Path 270" d="M1177.9,1050.868v-.078a2.289,2.289,0,0,0-4.579,0v.1a2.29,2.29,0,0,0,.665,4.481,2.354,2.354,0,0,0,1.663-.7,2.292,2.292,0,1,0,2.25-3.8Z" transform="translate(-1167.552 -1036.838)" fill="#b95148"/>
        </g>
      </g>
      <circle id="Ellipse_72" data-name="Ellipse 72" cx="12.777" cy="12.777" r="12.777" transform="translate(177.041 100.065)" fill="#fe935f"/>
    </g>
  </g>
</svg>
