<svg xmlns="http://www.w3.org/2000/svg" viewBox="0 0 430 281.158">
  <g id="Group_1" data-name="Group 1" transform="translate(-750 -580)">
    <path id="Path_82" data-name="Path 82" d="M847.44,490.158a14.766,14.766,0,0,0,13.773-9.39,198.966,198.966,0,0,0,13.522-72.323C874.735,298.38,785.4,209.018,675.321,209,565.137,208.946,475.8,298.254,475.8,408.426a198.946,198.946,0,0,0,17.454,81.731Z" transform="translate(305.265 371)" fill="#d2ebd1"/>
    <rect id="Rectangle_25" data-name="Rectangle 25" width="200.402" height="111.388" transform="translate(864.805 748.769)" fill="#bde0c2"/>
    <path id="Path_83" data-name="Path 83" d="M877.951,1086.7a16.343,16.343,0,0,0,16.351-16.35V1053.3H861.6v17.05a16.343,16.343,0,0,0,16.351,16.35Z" transform="translate(-11.206 -322.675)" fill="#8cb592"/>
    <path id="Path_84" data-name="Path 84" d="M1060.351,1086.7a16.343,16.343,0,0,0,16.351-16.35V1053.3H1044v17.05a16.343,16.343,0,0,0,16.351,16.35Z" transform="translate(-160.852 -322.675)" fill="#afd3b4"/>
    <path id="Path_85" data-name="Path 85" d="M1242.75,1086.7a16.343,16.343,0,0,0,16.351-16.35V1053.3h-32.7v17.05a16.343,16.343,0,0,0,16.351,16.35Z" transform="translate(-310.498 -322.675)" fill="#8cb592"/>
    <path id="Path_86" data-name="Path 86" d="M1425.151,1086.7a16.343,16.343,0,0,0,16.351-16.35V1053.3h-32.7v17.05a16.343,16.343,0,0,0,16.351,16.35Z" transform="translate(-460.144 -322.675)" fill="#afd3b4"/>
    <path id="Path_87" data-name="Path 87" d="M1607.551,1086.7a16.343,16.343,0,0,0,16.351-16.35V1053.3h-32.7v17.05a16.343,16.343,0,0,0,16.351,16.35Z" transform="translate(-609.79 -322.675)" fill="#8cb592"/>
    <path id="Path_88" data-name="Path 88" d="M1789.951,1086.7h0a16.343,16.343,0,0,0,16.35-16.35V1053.3h-32.7v17.05A16.343,16.343,0,0,0,1789.951,1086.7Z" transform="translate(-759.436 -322.675)" fill="#afd3b4"/>
    <path id="Path_89" data-name="Path 89" d="M1972.351,1086.7h0a16.343,16.343,0,0,0,16.351-16.35V1053.3H1956v17.05A16.343,16.343,0,0,0,1972.351,1086.7Z" transform="translate(-909.082 -322.675)" fill="#8cb592"/>
    <path id="Path_90" data-name="Path 90" d="M1091.149,826.049,1074.842,776.8H877.906L861.6,826.049h229.549Z" transform="translate(-11.368 -95.819)" fill="#8cb592"/>
    <path id="Path_91" data-name="Path 91" d="M1207.506,826.049,1195.888,776.8H1055.618L1044,826.049h163.506Z" transform="translate(-160.746 -95.819)" fill="#afd3b4"/>
    <path id="Path_92" data-name="Path 92" d="M1324.5,826.049l-6.974-49.249h-84.155l-6.974,49.249h98.1Z" transform="translate(-310.445 -95.819)" fill="#8cb592"/>
    <path id="Path_93" data-name="Path 93" d="M1439.171,776.8h-28.04l-2.331,49.249h32.7Z" transform="translate(-460.144 -95.819)" fill="#afd3b4"/>
    <path id="Path_94" data-name="Path 94" d="M1723.244,1309.391a7.69,7.69,0,0,0-7.691-7.691h-35.462a7.69,7.69,0,0,0-7.691,7.691v77.145h50.844Z" transform="translate(-676.39 -526.379)" fill="#87b28e"/>
    <path id="Path_95" data-name="Path 95" d="M1147.088,1350.1a6.09,6.09,0,0,0,6.1-6.1V1307.9a6.091,6.091,0,0,0-6.1-6.1H1063.6a6.091,6.091,0,0,0-6.1,6.1V1344a6.09,6.09,0,0,0,6.1,6.1Z" transform="translate(-171.887 -526.461)" fill="#87b28e"/>
    <path id="Path_96" data-name="Path 96" d="M1211.4,587.438c-3.944-3.944-10.757-3.693-16.082.287-4.249-.95-9.394.61-13.285,4.5a16.985,16.985,0,0,0-1.416,1.6h-1.434c-.09-.108-.179-.2-.269-.287-2.761-2.761-7.566-2.474-11.223.466-2.976-.968-6.777.054-9.574,2.868-.179.179-.359.359-.52.556h56.349C1214.719,593.677,1213.931,589.965,1211.4,587.438Z" transform="translate(-254.037 61.839)" fill="#def3df"/>
    <path id="Path_97" data-name="Path 97" d="M1961.8,537.938c-3.944-3.944-10.757-3.693-16.082.287-4.249-.95-9.394.61-13.285,4.5a17.019,17.019,0,0,0-1.416,1.6h-1.434c-.09-.108-.179-.2-.269-.287-2.761-2.761-7.566-2.474-11.223.466-2.976-.968-6.777.054-9.574,2.869-.179.179-.359.359-.52.556h56.349A10.711,10.711,0,0,0,1961.8,537.938Z" transform="translate(-869.672 102.451)" fill="#def3df"/>
    <path id="Path_98" data-name="Path 98" d="M1468.474,294.728c-6.6-6.6-17.964-6.167-26.875.466-7.1-1.6-15.705,1.022-22.177,7.512a29.255,29.255,0,0,0-2.349,2.653h-2.4c-.143-.161-.3-.323-.448-.484-4.607-4.608-12.657-4.141-18.753.789-4.984-1.614-11.313.09-16.01,4.787-.3.3-.592.61-.86.932h94.141C1474.05,305.126,1472.706,298.941,1468.474,294.728Z" transform="translate(-435.31 303.527)" fill="#def3df"/>
    <path id="Path_99" data-name="Path 99" d="M943.3,921.029l-13.07-38.994a17.682,17.682,0,0,0-22.392-11.151h0a17.682,17.682,0,0,0-11.151,22.392l13.07,38.994Z" transform="translate(-39.227 -172.236)" fill="#fff"/>
    <path id="Path_100" data-name="Path 100" d="M498,1403.526h36.61a25.445,25.445,0,0,0,25.44-25.44v-38.671A17.017,17.017,0,0,0,543.04,1322.4H489.614a17.017,17.017,0,0,0-17.014,17.014v38.671A25.38,25.38,0,0,0,498,1403.526Z" transform="translate(307.891 -543.368)" fill="#363f48"/>
    <path id="Path_101" data-name="Path 101" d="M495.12,998.863h47.313a23.023,23.023,0,0,0,23.02-23.02V882.526a8.417,8.417,0,0,0-8.426-8.426h-76.5a8.416,8.416,0,0,0-8.426,8.426v93.317A23.023,23.023,0,0,0,495.12,998.863Z" transform="translate(308.301 -175.44)" fill="#fff"/>
    <path id="Path_102" data-name="Path 102" d="M660.441,716.733a15.739,15.739,0,0,0,15.741-15.741V660.6H644.7v40.41a15.735,15.735,0,0,0,15.741,15.723Z" transform="translate(166.646 -0.485)" fill="#f3aa65"/>
    <path id="Path_103" data-name="Path 103" d="M692.022,746.231,664,739.4s2.241,16.153,28,21.783V746.231Z" transform="translate(150.909 -65.155)" fill="#c17842"/>
    <path id="Path_104" data-name="Path 104" d="M674.084,503.03a29.389,29.389,0,0,0,29.384-29.384V432.5H644.7v41.145a29.389,29.389,0,0,0,29.384,29.384Z" transform="translate(166.646 186.57)" fill="#fabd86"/>
    <path id="Path_105" data-name="Path 105" d="M676.9,473.645V432.5H644.7v41.145a29.37,29.37,0,0,0,16.1,26.211A29.423,29.423,0,0,0,676.9,473.645Z" transform="translate(166.646 186.57)" fill="#f3aa65"/>
    <circle id="Ellipse_33" data-name="Ellipse 33" cx="17.48" cy="17.48" r="17.48" transform="translate(801.646 779.367)" fill="#efefef"/>
    <path id="Path_106" data-name="Path 106" d="M740.827,1243.844a24,24,0,0,0,1.9-9.376V1190.4H690.18a2.081,2.081,0,0,0-2.08,2.08v49.285a2.081,2.081,0,0,0,2.08,2.08Z" transform="translate(131.145 -435.128)" fill="#efefef"/>
    <path id="Path_107" data-name="Path 107" d="M914.342,575.981v-3.46a1.721,1.721,0,1,0-3.442,0v3.46a1.721,1.721,0,0,0,3.442,0Z" transform="translate(-51.665 73.164)" fill="#935c3e"/>
    <path id="Path_108" data-name="Path 108" d="M781.742,575.981v-3.46a1.721,1.721,0,1,0-3.442,0v3.46a1.721,1.721,0,0,0,3.442,0Z" transform="translate(57.126 73.164)" fill="#935c3e"/>
    <path id="Path_109" data-name="Path 109" d="M735.2,1122.52l2.4-2.6V1097.6l-2.4-2.6H712.984l-2.385,2.6v22.321l2.385,2.6H735.2Z" transform="translate(112.677 -356.893)" fill="#e6e7e8"/>
    <path id="Path_110" data-name="Path 110" d="M753.536,1067.664a2.563,2.563,0,0,0-2.564-2.564H738.064a2.563,2.563,0,0,0-2.564,2.564v2.8h18.018v-2.8Z" transform="translate(92.245 -332.383)" fill="#ff6062"/>
    <path id="Path_111" data-name="Path 111" d="M756.4,1144.778a2.479,2.479,0,0,0,2.474-2.474v-10.129a2.479,2.479,0,0,0-2.474-2.474h-10.13a2.479,2.479,0,0,0-2.474,2.474V1142.3a2.479,2.479,0,0,0,2.474,2.474Z" transform="translate(85.435 -385.374)" fill="#ffce60"/>
    <rect id="Rectangle_26" data-name="Rectangle 26" width="29.133" height="39.496" transform="translate(848.722 735.714)" fill="#ff6766"/>
    <path id="Path_112" data-name="Path 112" d="M882.011,1043.7a1.649,1.649,0,1,0,0-3.3H857.449a1.649,1.649,0,1,0,0,3.3Z" transform="translate(-6.45 -312.119)" fill="#fe6257"/>
    <path id="Path_113" data-name="Path 113" d="M866.858,1306.006h12.066l2.492-4.106H852.3l2.492,4.106Z" transform="translate(-3.578 -526.665)" fill="#cec8c8"/>
    <path id="Path_114" data-name="Path 114" d="M881.416,1062.888l-2.492-4.088H854.792l-2.492,4.088h29.116Z" transform="translate(-3.578 -327.215)" fill="#cec8c8"/>
    <rect id="Rectangle_27" data-name="Rectangle 27" width="27.108" height="36.753" transform="translate(875.729 732.119)" fill="#79b18c"/>
    <path id="Path_115" data-name="Path 115" d="M1018.909,1044.2a1.9,1.9,0,0,0,0-3.8H990.6a1.9,1.9,0,0,0,0,3.8Z" transform="translate(-115.483 -312.119)" fill="#d8dbe0"/>
    <path id="Path_116" data-name="Path 116" d="M1018.909,1270.5a1.9,1.9,0,0,0,0-3.8H990.6a1.9,1.9,0,0,0,0,3.8Z" transform="translate(-115.483 -497.786)" fill="#cec8c8"/>
    <path id="Path_117" data-name="Path 117" d="M1284.4,1037.186V999.7a2.153,2.153,0,0,0-2.223-2.1H1271.8v41.683h10.38A2.153,2.153,0,0,0,1284.4,1037.186Z" transform="translate(-347.759 -276.97)" fill="#fee96b"/>
    <path id="Path_118" data-name="Path 118" d="M1174.973,1039.283V997.6h-18.95a2.164,2.164,0,0,0-2.223,2.1v37.488a2.153,2.153,0,0,0,2.223,2.1Z" transform="translate(-250.942 -276.97)" fill="#dfcf70"/>
    <path id="Path_119" data-name="Path 119" d="M1257.9,990.706a.755.755,0,1,0,0-1.506h-10.793a.755.755,0,1,0,0,1.506Z" transform="translate(-326.838 -270.114)" fill="#d8dbe0"/>
    <path id="Path_120" data-name="Path 120" d="M751.118,1210.244V1156.8H690.18a2.081,2.081,0,0,0-2.08,2.08v49.285a2.081,2.081,0,0,0,2.08,2.08Z" transform="translate(131.147 -407.563)" fill="#ed8d5d"/>
    <path id="Path_121" data-name="Path 121" d="M950.02,1210.244h59.486a2.081,2.081,0,0,0,2.08-2.08V1158.88a2.081,2.081,0,0,0-2.08-2.08H936.18a2.081,2.081,0,0,0-2.08,2.08v35.444A15.919,15.919,0,0,0,950.02,1210.244Z" transform="translate(-70.664 -407.563)" fill="#f89d68"/>
    <path id="Path_122" data-name="Path 122" d="M1312.433,1156.8H1303.2l11.313,11.313v-9.233A2.081,2.081,0,0,0,1312.433,1156.8Z" transform="translate(-373.522 -407.612)" fill="#ffb18a"/>
    <path id="Path_123" data-name="Path 123" d="M514.787,1313.593,472.1,1300.2v24.382a25.135,25.135,0,0,0,.251,3.514l34.494,10.811Z" transform="translate(308.301 -525.228)" fill="#efefef"/>
    <circle id="Ellipse_34" data-name="Ellipse 34" cx="17.48" cy="17.48" r="17.48" transform="translate(801.646 774.392)" fill="#fabd86"/>
    <path id="Path_124" data-name="Path 124" d="M806.61,692.3H779.7a13.455,13.455,0,1,0,26.91,0Z" transform="translate(55.985 -26.517)" fill="#be4b59"/>
    <path id="Path_125" data-name="Path 125" d="M795.991,713.946c.018-.287.036-.574.036-.861a10.671,10.671,0,0,0-14.827-9.843,13.448,13.448,0,0,0,13.2,10.793A9.521,9.521,0,0,0,795.991,713.946Z" transform="translate(54.75 -34.804)" fill="#f65866"/>
    <path id="Path_126" data-name="Path 126" d="M816.316,695.466a1.664,1.664,0,0,0,1.667-1.667v-1.4H796.2v1.4a1.664,1.664,0,0,0,1.667,1.667Z" transform="translate(42.446 -26.604)" fill="#fef4ff"/>
    <path id="Path_127" data-name="Path 127" d="M314.32,1069.6l-10.9,34.745a19.251,19.251,0,0,0,12.621,24.149l51.633,16.189,7.942-25.333-44.677-14,8.713-27.789Z" transform="translate(447.472 -335.995)" fill="#fabd86"/>
    <path id="Path_128" data-name="Path 128" d="M360.976,892.445a17.692,17.692,0,0,0-11.582-22.177h0a17.692,17.692,0,0,0-22.177,11.582L314.9,921.094l33.759,10.6Z" transform="translate(437.318 -171.818)" fill="#fff"/>
    <circle id="Ellipse_35" data-name="Ellipse 35" cx="16.602" cy="16.602" r="16.602" transform="translate(844.809 595.548)" fill="#935c3e"/>
    <circle id="Ellipse_36" data-name="Ellipse 36" cx="11.456" cy="11.456" r="11.456" transform="translate(849.331 612.149)" fill="#935c3e"/>
    <circle id="Ellipse_37" data-name="Ellipse 37" cx="13.123" cy="13.123" r="13.123" transform="translate(802.901 611.253)" fill="#935c3e"/>
    <circle id="Ellipse_38" data-name="Ellipse 38" cx="5.88" cy="5.88" r="5.88" transform="translate(814.053 609.245)" fill="#935c3e"/>
    <path id="Path_129" data-name="Path 129" d="M894.7,354.835a17.033,17.033,0,0,0-.161-2.349,16.6,16.6,0,0,1-32.2-2.886,16.853,16.853,0,0,0-.843,5.235,16.6,16.6,0,0,0,33.2,0Z" transform="translate(-11.124 254.607)" fill="#935c3e"/>
    <path id="Path_130" data-name="Path 130" d="M720.136,360.767V336.6H690.07a5.968,5.968,0,0,0-5.97,5.97v12.263a5.968,5.968,0,0,0,5.97,5.97h30.066Z" transform="translate(134.421 265.276)" fill="#935c3e"/>
    <circle id="Ellipse_39" data-name="Ellipse 39" cx="7.673" cy="7.673" r="7.673" transform="translate(803.672 629.871)" fill="#f3aa65"/>
    <circle id="Ellipse_40" data-name="Ellipse 40" cx="3.442" cy="3.442" r="3.442" transform="translate(807.903 634.106)" fill="#c17842"/>
    <circle id="Ellipse_41" data-name="Ellipse 41" cx="5.522" cy="5.522" r="5.522" transform="translate(819.126 780.809)" fill="#fccba2"/>
    <path id="Path_131" data-name="Path 131" d="M2147.212,932.365h29.313a25.464,25.464,0,0,0,25.458-25.458V877.594h0a27.392,27.392,0,0,0-27.395-27.394h0a27.392,27.392,0,0,0-27.394,27.394h0a27.392,27.392,0,0,0-27.395,27.394h0A27.415,27.415,0,0,0,2147.212,932.365Z" transform="translate(-1043.354 -156.001)" fill="#b0dcb8"/>
    <path id="Path_132" data-name="Path 132" d="M2266.9,1384.3v70.028h8.893v-41.414h8.624a22.124,22.124,0,0,0,22.124-22.124h-8.893a13.233,13.233,0,0,1-13.231,13.231h-8.624V1384.3Z" transform="translate(-1164.081 -594.17)" fill="#80b289"/>
    <path id="Path_133" data-name="Path 133" d="M2194.426,1237.152h45.125a20.024,20.024,0,0,0,20.026-20.026h0a20.024,20.024,0,0,0-20.026-20.026h-45.125a20.024,20.024,0,0,0-20.026,20.026h0A20.035,20.035,0,0,0,2194.426,1237.152Z" transform="translate(-1088.165 -440.643)" fill="#b0dcb8"/>
    <path id="Path_134" data-name="Path 134" d="M2528.78,1247.7a3.12,3.12,0,1,0,6.239,0,14.209,14.209,0,0,0-14.2-14.2,3.12,3.12,0,0,0,0,6.239A7.988,7.988,0,0,1,2528.78,1247.7Z" transform="translate(-1369.917 -470.533)" fill="#d2ebd1"/>
    <path id="Path_135" data-name="Path 135" d="M1986.72,1077.434h23.917a20.781,20.781,0,0,0,20.779-20.779v-23.916h0a22.342,22.342,0,0,0-22.339-22.339h0a22.342,22.342,0,0,0-22.339,22.339h0a22.342,22.342,0,0,0-22.339,22.339h0A22.319,22.319,0,0,0,1986.72,1077.434Z" transform="translate(-915.814 -287.441)" fill="#b0dcb8"/>
    <path id="Path_136" data-name="Path 136" d="M2231.236,1065.382a2.546,2.546,0,0,0,5.092,0,11.6,11.6,0,0,0-11.582-11.582,2.546,2.546,0,0,0,0,5.092A6.5,6.5,0,0,1,2231.236,1065.382Z" transform="translate(-1127.395 -323.104)" fill="#d2ebd1"/>
    <path id="Path_137" data-name="Path 137" d="M2447.08,917.6a3.12,3.12,0,0,0,6.239,0,14.209,14.209,0,0,0-14.2-14.2,3.12,3.12,0,1,0,0,6.239A7.965,7.965,0,0,1,2447.08,917.6Z" transform="translate(-1302.865 -199.708)" fill="#d2ebd1"/>
    <path id="Path_138" data-name="Path 138" d="M2109.207,1593.6h23.934a27.934,27.934,0,0,0-44.175-32.629,16.875,16.875,0,1,0-6.1,32.612h26.337Z" transform="translate(-999.199 -733.446)" fill="#b0dcb8"/>
  </g>
</svg>
