<?xml version="1.0" encoding="utf-8"?>
<!-- Generator: Adobe Illustrator 23.0.0, SVG Export Plug-In . SVG Version: 6.00 Build 0)  -->
<svg version="1.1" id="Charity_Logo" xmlns="http://www.w3.org/2000/svg" xmlns:xlink="http://www.w3.org/1999/xlink" x="0px"
	 y="0px" viewBox="0 0 1000 1000" style="enable-background:new 0 0 1000 1000;" xml:space="preserve">
<style type="text/css">
	.st0{display:none;fill:#DCCCA3;}
	.st1{fill:#DCCCA3;}
	.st2{fill:#4A2545;}
</style>
<rect x="0" y="0" class="st0" width="1000" height="1000"/>
<rect x="2320" y="-1475" class="st1" width="1600" height="1200"/>
<rect y="-1470" class="st1" width="1600" height="1200"/>
<rect x="745.19" y="-1182.04" class="st2" width="109.21" height="624.08"/>
<rect x="745.19" y="-1182.04" transform="matrix(-1.836970e-16 1 -1 -1.836970e-16 -70.2028 -1669.7971)" class="st2" width="109.21" height="624.08"/>
<rect x="874.11" y="-686.88" transform="matrix(-1.836970e-16 1 -1 -1.836970e-16 316.1476 -1541.2842)" class="st2" width="109.21" height="148.62"/>
<rect x="1003.03" y="-815.39" transform="matrix(-1 -1.224647e-16 1.224647e-16 -1 2115.269 -1373.3549)" class="st2" width="109.21" height="257.43"/>
<rect x="487.76" y="-1182.04" class="st2" width="109.21" height="257.43"/>
<g>
	<rect x="445.19" y="187.96" class="st2" width="109.21" height="624.08"/>
	
		<rect x="445.19" y="187.96" transform="matrix(-1.836970e-16 1 -1 -1.836970e-16 999.7972 0.2029)" class="st2" width="109.21" height="624.08"/>
	
		<rect x="574.11" y="683.12" transform="matrix(-1.836970e-16 1 -1 -1.836970e-16 1386.1476 128.7159)" class="st2" width="109.21" height="148.62"/>
	
		<rect x="703.03" y="554.61" transform="matrix(-1 -1.224647e-16 1.224647e-16 -1 1515.2692 1366.6453)" class="st2" width="109.21" height="257.43"/>
	<rect x="187.76" y="187.96" class="st2" width="109.21" height="257.43"/>
</g>
<rect x="3065.19" y="-1327.04" class="st2" width="109.21" height="624.08"/>
<rect x="3065.19" y="-1327.04" transform="matrix(-1.836970e-16 1 -1 -1.836970e-16 2104.7971 -4134.7974)" class="st2" width="109.21" height="624.08"/>
<rect x="3194.11" y="-831.88" transform="matrix(-1.836970e-16 1 -1 -1.836970e-16 2491.1477 -4006.2842)" class="st2" width="109.21" height="148.62"/>
<rect x="3323.03" y="-960.39" transform="matrix(-1 -1.224647e-16 1.224647e-16 -1 6755.269 -1663.3547)" class="st2" width="109.21" height="257.43"/>
<rect x="2807.76" y="-1327.04" class="st2" width="109.21" height="257.43"/>
<rect x="3318.58" y="-495.04" width="24.48" height="82.2"/>
<rect x="3260.87" y="-495.04" width="139.91" height="24.49"/>
<rect x="3347.48" y="-441.74" transform="matrix(-1.836970e-16 1 -1 -1.836970e-16 2934.6416 -3784.8042)" width="24.48" height="33.32"/>
<rect x="3376.38" y="-470.55" transform="matrix(-1 -1.224647e-16 1.224647e-16 -1 6777.249 -883.3911)" width="24.48" height="57.71"/>
<rect x="3260.87" y="-552.75" width="24.48" height="57.71"/>
<text transform="matrix(1 0 0 1 3171.3633 -345.2091)" style="font-family:'IRANSans-Light'; font-size:32px;">“We” Word In Persian</text>
<rect x="2833.25" y="-552.75" width="24.49" height="139.9"/>
<rect x="2775.54" y="-495.04" width="139.91" height="24.48"/>
<text transform="matrix(1 0 0 1 2749.6306 -345.2114)" style="font-family:'IRANSans-Light'; font-size:32px;">“Aid” Symbol</text>
</svg>
